<svg xmlns="http://www.w3.org/2000/svg" xmlns:xlink="http://www.w3.org/1999/xlink" aria-hidden="true" role="img" class="iconify iconify--logos" width="31.88" height="32" preserveAspectRatio="xMidYMid meet" viewBox="0 0 256 257"><defs><linearGradient id="IconifyId1813088fe1f5d6791" x1="-0.828%" x2="57.636%" y1="7.652%" y2="78.411%"><stop offset="0%" stop-color="#41D1FF"></stop><stop offset="100%" stop-color="#BD34FE"></stop></linearGradient><linearGradient id="IconifyId1813088fe1f5d6792" x1="43.376%" x2="50.316%" y1="2.242%" y2="89.03%"><stop offset="0%" stop-color="#FFEA83"></stop><stop offset="8.333%" stop-color="#FFDD35"></stop><stop offset="100%" stop-color="#FFA800"></stop></linearGradient></defs><path fill="url(#IconifyId1813088fe1f5d6791)" d="M255.482 37.871a4.47 4.47 0 0 0-3.693-3.61L134.588 19.34a10.04 10.04 0 0 0-2.484-.153l-10.457.625c-.247-.282-.574-.53-.941-.703a1.97 1.97 0 0 0-1.801.01l-105.744 51.52a4.47 4.47 0 0 0-2.43 5.483L97.58 243.626c.451 1.259 1.48 2.222 2.766 2.593a4.43 4.43 0 0 0 3.737-.533L253.25 119.231a4.47 4.47 0 0 0 2.232-4.045l-.001-77.315Z"></path><path fill="url(#IconifyId1813088fe1f5d6792)" d="M129.593 1.905a4.47 4.47 0 0 0-6.103.856L10.843 147.165a4.47 4.47 0 0 0 2.82 7.152l121.751 15.342a1.90 1.90 0 0 1 1.63 2.155l-19.167 101.488a4.47 4.47 0 0 0 7.375 4.145l119.864-118.672a4.47 4.47 0 0 0-2.127-7.409l-117.382-27.14a1.94 1.94 0 0 1-1.464-2.106l16.16-95.631a4.48 4.48 0 0 0-.91-3.044Z"></path></svg>
